# xmcd CD database file
#
# Track frame offsets:
#	150
#	17502
#	38212
#	50515
#	69725
#	88442
#	108080
#	126327
#	144982
#	163020
#	181457
#	198702
#
# Disc length: 2892 seconds
#
# Revision: 0
# Processed by: cddbd v1.4PL0 Copyright (c) Steve Scherf et al.
# Submitted via: CdAid 2001.05.15.01
#
DISCID=ad0b4a0c
DTITLE=Valerie DeLaCruz - Bootleg
DYEAR=1900
DGENRE=
TTITLE0=Can I Resist You?
TTITLE1=We Think There's A Choice
TTITLE2=Honey Love
TTITLE3=Sky Blue
TTITLE4=The Secret
TTITLE5=In Your Hands
TTITLE6=Isn't There Any Other Way?
TTITLE7=I'm With You Always
TTITLE8=Just Tell Me With Your Kiss
TTITLE9=Renaissance Of Love
TTITLE10=Room To Room
TTITLE11=My Girlfriend's Quilt (live w/ intro)
EXTD=
EXTT0=
EXTT1=
EXTT2=
EXTT3=
EXTT4=
EXTT5=
EXTT6=
EXTT7=
EXTT8=
EXTT9=
EXTT10=
EXTT11=
PLAYORDER=
